<svg width="207" height="178" viewBox="0 0 207 178" fill="none" xmlns="http://www.w3.org/2000/svg">
<path d="M29.3262 56.5331C29.3262 67.1913 39.6476 75.9488 52.2726 75.9488H63.6655C76.2815 75.9488 86.603 67.209 86.603 56.5331H29.3262Z" fill="#EBEBEB"/>
<path d="M22.7183 32.1347H44.1469C44.1469 32.1347 40.4237 41.9048 40.4237 47.6602C40.4237 53.4156 56.7272 75.9489 33.4326 75.9489C10.1379 75.9489 26.4415 53.4067 26.4415 47.6602C26.4415 41.9136 22.7183 32.1347 22.7183 32.1347Z" fill="#E0E0E0"/>
<path d="M54.834 96.4747C54.834 97.3003 55.0801 98.1074 55.5412 98.7939C56.0023 99.4804 56.6577 100.015 57.4245 100.331C58.1913 100.647 59.0351 100.73 59.8491 100.569C60.6631 100.408 61.4109 100.01 61.9977 99.4265C62.5846 98.8427 62.9843 98.0988 63.1462 97.2891C63.3081 96.4793 63.225 95.6399 62.9074 94.8772C62.5898 94.1144 62.0519 93.4624 61.3618 93.0037C60.6717 92.545 59.8604 92.3002 59.0304 92.3002C57.9175 92.3002 56.8501 92.74 56.0631 93.5229C55.2761 94.3057 54.834 95.3675 54.834 96.4747Z" fill="#FAFAFA"/>
<path d="M54.834 130.847C54.834 131.673 55.0801 132.48 55.5412 133.166C56.0023 133.853 56.6577 134.388 57.4245 134.704C58.1913 135.02 59.0351 135.103 59.8491 134.941C60.6631 134.78 61.4109 134.383 61.9977 133.799C62.5846 133.215 62.9843 132.471 63.1462 131.662C63.3081 130.852 63.225 130.012 62.9074 129.25C62.5898 128.487 62.0519 127.835 61.3618 127.376C60.6717 126.918 59.8604 126.673 59.0304 126.673C57.9175 126.673 56.8501 127.113 56.0631 127.895C55.2761 128.678 54.834 129.74 54.834 130.847Z" fill="#FAFAFA"/>
<path d="M59.0304 169.395C61.348 169.395 63.2269 167.526 63.2269 165.22C63.2269 162.915 61.348 161.046 59.0304 161.046C56.7128 161.046 54.834 162.915 54.834 165.22C54.834 167.526 56.7128 169.395 59.0304 169.395Z" fill="#FAFAFA"/>
<path opacity="0.22" d="M80.9688 0L87.3348 20.4838C88.1475 23.0908 89.9683 25.2707 92.3974 26.5448C94.8265 27.8189 97.6652 28.0831 100.29 27.2792L120.897 20.954L80.9688 0Z" fill="#407BFF"/>
<path d="M80.97 0L7.30929 22.6129C6.00895 23.0098 4.80013 23.6576 3.75199 24.5191C2.70385 25.3806 1.83696 26.439 1.20091 27.6338C0.564849 28.8285 0.172108 30.1361 0.0451605 31.4818C-0.0817873 32.8275 0.0595457 34.1849 0.461072 35.4762L42.5146 170.745C42.916 172.037 43.5696 173.237 44.4379 174.278C45.3063 175.318 46.3724 176.179 47.5755 176.81C48.7786 177.441 50.095 177.83 51.4496 177.956C52.8041 178.081 54.1703 177.94 55.47 177.541L149.747 148.603C151.046 148.205 152.254 147.556 153.301 146.695C154.349 145.833 155.214 144.774 155.85 143.579C156.485 142.385 156.877 141.077 157.003 139.732C157.13 138.387 156.988 137.03 156.586 135.739L120.872 20.954L80.97 0Z" fill="#407BFF"/>
<path opacity="0.8" d="M80.97 0L7.30929 22.6129C6.00895 23.0098 4.80013 23.6576 3.75199 24.5191C2.70385 25.3806 1.83696 26.439 1.20091 27.6338C0.564849 28.8285 0.172108 30.1361 0.0451605 31.4818C-0.0817873 32.8275 0.0595457 34.1849 0.461072 35.4762L42.5146 170.745C42.916 172.037 43.5696 173.237 44.4379 174.278C45.3063 175.318 46.3724 176.179 47.5755 176.81C48.7786 177.441 50.095 177.83 51.4496 177.956C52.8041 178.081 54.1703 177.94 55.47 177.541L149.747 148.603C151.046 148.205 152.254 147.556 153.301 146.695C154.349 145.833 155.214 144.774 155.85 143.579C156.485 142.385 156.877 141.077 157.003 139.732C157.13 138.387 156.988 137.03 156.586 135.739L120.872 20.954L80.97 0Z" fill="white"/>
<g opacity="0.28">
<path d="M120.604 142.695L59.3183 161.502C58.1722 161.852 56.9333 161.736 55.8725 161.181C54.8118 160.626 54.0154 159.676 53.6576 158.539C53.3086 157.4 53.4273 156.17 53.9877 155.118C54.5481 154.066 55.5047 153.277 56.6486 152.923L117.934 134.107C119.082 133.758 120.322 133.875 121.383 134.432C122.444 134.989 123.239 135.941 123.595 137.079C123.944 138.218 123.825 139.448 123.265 140.5C122.705 141.552 121.748 142.341 120.604 142.695Z" fill="#407BFF"/>
</g>
<g opacity="0.28">
<path d="M54.6473 32.318L22.2365 42.2627C21.0904 42.61 19.8526 42.4935 18.7925 41.9386C17.7323 41.3837 16.9357 40.4353 16.5758 39.2997C16.2266 38.1597 16.3451 36.9289 16.9054 35.8753C17.4656 34.8218 18.4223 34.031 19.5669 33.6753L51.9776 23.7306C53.1237 23.3784 54.3637 23.4926 55.4251 24.0482C56.4865 24.6037 57.2825 25.5552 57.6383 26.6936C57.9875 27.8335 57.8691 29.0644 57.3088 30.1179C56.7485 31.1715 55.7919 31.9623 54.6473 32.318Z" fill="#407BFF"/>
</g>
<g opacity="0.28">
<path d="M81.0944 42.8663L27.523 59.3048C26.3793 59.6461 25.1462 59.5255 24.0914 58.9691C23.0367 58.4127 22.2453 57.4655 21.8891 56.3329C21.5373 55.1953 21.6537 53.9656 22.2126 52.9131C22.7716 51.8605 23.7276 51.071 24.8712 50.7174L78.4427 34.2789C79.5888 33.9292 80.8277 34.0445 81.8884 34.5998C82.9492 35.155 83.7455 36.105 84.1034 37.2419C84.4494 38.3842 84.3273 39.616 83.7638 40.6694C83.2003 41.7227 82.2409 42.5123 81.0944 42.8663Z" fill="#407BFF"/>
</g>
<g opacity="0.28">
<path d="M111.005 52.349L32.8261 76.3014C31.6811 76.6509 30.4434 76.5353 29.3841 75.98C28.3248 75.4246 27.5302 74.4747 27.1743 73.3384C26.8247 72.1997 26.9419 70.9698 27.5004 69.9164C28.0589 68.8631 29.0135 68.0716 30.1564 67.714L108.335 43.7616C109.48 43.4145 110.717 43.5312 111.775 44.0863C112.834 44.6413 113.629 45.5896 113.987 46.7246C114.339 47.8634 114.223 49.0943 113.664 50.1482C113.105 51.2022 112.149 51.9935 111.005 52.349Z" fill="#407BFF"/>
</g>
<g opacity="0.28">
<path d="M116.3 69.382L70.8531 83.3365C69.707 83.6832 68.4694 83.5652 67.4105 83.0084C66.3516 82.4516 65.5574 81.5012 65.2013 80.3646C64.852 79.227 64.9695 77.9984 65.5281 76.9465C66.0867 75.8946 67.0412 75.1047 68.1835 74.7491L113.63 60.7946C114.777 60.45 116.015 60.5688 117.075 61.1252C118.134 61.6815 118.931 62.6306 119.291 63.7665C119.64 64.9052 119.521 66.1349 118.96 67.187C118.4 68.2391 117.443 69.0282 116.3 69.382Z" fill="#407BFF"/>
</g>
<g opacity="0.28">
<path d="M50.0153 89.7328L38.1313 93.3789C36.9852 93.7287 35.7463 93.6133 34.6856 93.0581C33.6248 92.5028 32.8284 91.5529 32.4706 90.4159C32.119 89.276 32.2363 88.044 32.7969 86.9898C33.3575 85.9357 34.3157 85.1452 35.4617 84.7915L47.3456 81.1454C48.4917 80.7981 49.7296 80.9145 50.7897 81.4694C51.8498 82.0243 52.6465 82.9728 53.0063 84.1084C53.3531 85.2483 53.2335 86.4782 52.6736 87.5311C52.1136 88.584 51.1585 89.3751 50.0153 89.7328Z" fill="#407BFF"/>
</g>
<g opacity="0.28">
<path d="M121.602 86.4238L43.4237 110.421C42.2776 110.767 41.0399 110.649 39.981 110.093C38.9221 109.536 38.128 108.585 37.7719 107.449C37.4201 106.311 37.5365 105.081 38.0954 104.029C38.6544 102.976 39.6104 102.187 40.754 101.833L118.933 77.8364C120.078 77.4893 121.314 77.606 122.373 78.1611C123.432 78.7161 124.227 79.6644 124.584 80.7994C124.936 81.9382 124.82 83.1691 124.262 84.223C123.703 85.277 122.747 86.0682 121.602 86.4238Z" fill="#407BFF"/>
</g>
<g opacity="0.28">
<path d="M96.7276 112.718L48.7186 127.453C47.5737 127.801 46.3371 127.684 45.2784 127.129C44.2197 126.574 43.4248 125.625 43.0668 124.49C42.7173 123.352 42.8345 122.122 43.393 121.069C43.9515 120.015 44.906 119.224 46.049 118.866L94.0579 104.131C95.2052 103.784 96.4441 103.902 97.5044 104.458C98.5648 105.015 99.3606 105.966 99.7187 107.103C100.07 108.242 99.9525 109.472 99.3917 110.525C98.831 111.578 97.8729 112.367 96.7276 112.718Z" fill="#407BFF"/>
</g>
<g opacity="0.28">
<path d="M126.9 103.466L114.088 107.396C112.941 107.743 111.702 107.625 110.641 107.068C109.581 106.512 108.785 105.561 108.427 104.424C108.078 103.285 108.197 102.055 108.757 101.003C109.318 99.9511 110.274 99.162 111.418 98.8082L124.231 94.8782C125.376 94.5287 126.613 94.6443 127.673 95.1997C128.732 95.755 129.527 96.7049 129.882 97.8412C130.234 98.98 130.118 100.211 129.56 101.265C129.001 102.319 128.045 103.11 126.9 103.466Z" fill="#407BFF"/>
</g>
<g opacity="0.28">
<path d="M132.194 120.517L54.0334 144.469C52.8861 144.819 51.6462 144.702 50.5852 144.145C49.5242 143.588 48.7287 142.636 48.3727 141.497C48.0213 140.359 48.1389 139.128 48.6996 138.075C49.2603 137.022 50.2184 136.234 51.3637 135.882L129.533 111.885C130.681 111.541 131.918 111.659 132.978 112.216C134.038 112.772 134.834 113.721 135.194 114.857C135.373 115.424 135.438 116.021 135.384 116.613C135.33 117.206 135.159 117.781 134.88 118.307C134.601 118.834 134.22 119.3 133.759 119.679C133.298 120.058 132.766 120.343 132.194 120.517Z" fill="#407BFF"/>
</g>
<path d="M165.703 9.82928L88.7563 14.5488C87.3969 14.6291 86.0668 14.9749 84.8421 15.5666C83.6174 16.1582 82.5221 16.984 81.619 17.9967C80.7159 19.0094 80.0226 20.1891 79.5789 21.4683C79.1352 22.7475 78.9497 24.1011 79.0331 25.4516L87.8099 166.753C87.8918 168.105 88.2413 169.427 88.8383 170.644C89.4354 171.861 90.2683 172.949 91.2894 173.846C92.3104 174.742 93.4995 175.43 94.7885 175.869C96.0775 176.308 97.441 176.491 98.801 176.405L197.283 170.364C198.641 170.283 199.969 169.936 201.192 169.343C202.415 168.751 203.508 167.925 204.409 166.912C205.31 165.899 206 164.72 206.441 163.441C206.883 162.162 207.065 160.81 206.98 159.461L199.569 39.5481L165.703 9.82928Z" fill="#407BFF"/>
<path opacity="0.8" d="M165.703 9.82928L88.7563 14.5488C87.3969 14.6291 86.0668 14.9749 84.8421 15.5666C83.6174 16.1582 82.5221 16.984 81.619 17.9967C80.7159 19.0094 80.0226 20.1891 79.5789 21.4683C79.1352 22.7475 78.9497 24.1011 79.0331 25.4516L87.8099 166.753C87.8918 168.105 88.2413 169.427 88.8383 170.644C89.4354 171.861 90.2683 172.949 91.2894 173.846C92.3104 174.742 93.4995 175.43 94.7885 175.869C96.0775 176.308 97.441 176.491 98.801 176.405L197.283 170.364C198.641 170.283 199.969 169.936 201.192 169.343C202.415 168.751 203.508 167.925 204.409 166.912C205.31 165.899 206 164.72 206.441 163.441C206.883 162.162 207.065 160.81 206.98 159.461L199.569 39.5481L165.703 9.82928Z" fill="white"/>
<g opacity="0.22">
<path d="M170.353 157.776L106.326 161.706C105.13 161.774 103.956 161.369 103.059 160.579C102.162 159.79 101.617 158.68 101.541 157.492C101.472 156.304 101.878 155.137 102.671 154.245C103.463 153.353 104.578 152.808 105.773 152.728L169.8 148.807C170.996 148.736 172.171 149.139 173.07 149.927C173.968 150.715 174.516 151.824 174.594 153.012C174.665 154.202 174.259 155.371 173.464 156.264C172.669 157.157 171.55 157.7 170.353 157.776Z" fill="#407BFF"/>
</g>
<g opacity="0.22">
<path d="M132.461 35.0682L98.5951 37.1263C97.3995 37.1945 96.2252 36.791 95.3273 36.0036C94.4295 35.2162 93.8808 34.1085 93.8004 32.9214C93.7319 31.732 94.1392 30.564 94.9336 29.6717C95.728 28.7794 96.845 28.2351 98.0415 28.1575L131.908 26.0816C133.103 26.0112 134.277 26.4141 135.174 27.2022C136.071 27.9903 136.617 29.0993 136.693 30.2866C136.769 31.478 136.366 32.6507 135.573 33.5472C134.779 34.4437 133.66 34.9907 132.461 35.0682Z" fill="#407BFF"/>
</g>
<g opacity="0.22">
<path d="M155.658 51.5152L99.703 54.9395C98.5062 55.0124 97.3293 54.6106 96.4304 53.8223C95.5315 53.0339 94.9841 51.9234 94.9083 50.7346C94.8374 49.5446 95.2439 48.3753 96.0388 47.4825C96.8336 46.5896 97.9521 46.046 99.1494 45.9707L155.096 42.5464C156.293 42.4735 157.47 42.8753 158.368 43.6637C159.267 44.452 159.815 45.5625 159.89 46.7514C159.961 47.9398 159.556 49.1079 158.763 50.0005C157.97 50.8931 156.854 51.4376 155.658 51.5152Z" fill="#407BFF"/>
</g>
<g opacity="0.22">
<path d="M182.469 67.741L100.809 72.7444C99.6087 72.8173 98.4285 72.4148 97.5265 71.6251C96.6246 70.8353 96.0743 69.7226 95.9962 68.5305C95.9253 67.343 96.3309 66.1759 97.124 65.2847C97.9172 64.3935 99.0334 63.8509 100.228 63.7755L181.898 58.7633C183.094 58.6953 184.269 59.1002 185.165 59.8897C186.062 60.6792 186.608 61.7891 186.684 62.9771C186.755 64.1627 186.352 65.3283 185.563 66.2204C184.774 67.1124 183.662 67.6589 182.469 67.741Z" fill="#407BFF"/>
</g>
<g opacity="0.22">
<path d="M183.577 85.5366L136.104 88.4464C134.908 88.5169 133.732 88.1142 132.834 87.3263C131.935 86.5385 131.387 85.4294 131.309 84.2414C131.236 83.0523 131.64 81.8829 132.434 80.9898C133.227 80.0967 134.345 79.5528 135.541 79.4775L183.015 76.5677C184.211 76.4949 185.388 76.8967 186.287 77.685C187.186 78.4734 187.733 79.5838 187.809 80.7727C187.88 81.9612 187.475 83.1293 186.682 84.0219C185.889 84.9144 184.773 85.459 183.577 85.5366Z" fill="#407BFF"/>
</g>
<g opacity="0.22">
<path d="M114.327 89.7774L101.907 90.5403C100.712 90.6107 99.5371 90.2078 98.6402 89.4197C97.7432 88.6316 97.1971 87.5226 97.1212 86.3353C97.0503 85.1468 97.4556 83.9788 98.2485 83.0862C99.0415 82.1936 100.158 81.649 101.353 81.5714L113.773 80.8085C114.97 80.7404 116.146 81.1451 117.044 81.9344C117.942 82.7237 118.49 83.8336 118.568 85.0224C118.636 86.2108 118.229 87.3779 117.434 88.2688C116.639 89.1596 115.522 89.702 114.327 89.7774Z" fill="#407BFF"/>
</g>
<g opacity="0.22">
<path d="M184.685 103.332L103.015 108.336C101.819 108.406 100.643 108.004 99.7448 107.216C98.8465 106.428 98.2984 105.319 98.2203 104.131C98.1518 102.942 98.5591 101.773 99.3535 100.881C100.148 99.9889 101.265 99.4446 102.461 99.367L184.122 94.3636C185.32 94.2932 186.497 94.697 187.395 95.4868C188.294 96.2765 188.841 97.3878 188.917 98.5774C188.988 99.765 188.582 100.932 187.789 101.823C186.996 102.714 185.88 103.257 184.685 103.332Z" fill="#407BFF"/>
</g>
<g opacity="0.22">
<path d="M154.272 123.062L104.12 126.141C102.923 126.209 101.748 125.804 100.85 125.015C99.9517 124.226 99.4039 123.116 99.3258 121.927C99.2573 120.738 99.6649 119.571 100.46 118.681C101.254 117.79 102.371 117.247 103.567 117.172L153.719 114.094C154.915 114.026 156.089 114.431 156.986 115.22C157.883 116.01 158.428 117.119 158.504 118.307C158.578 119.496 158.173 120.664 157.379 121.556C156.586 122.447 155.468 122.989 154.272 123.062Z" fill="#407BFF"/>
</g>
<g opacity="0.22">
<path d="M185.783 121.137L172.39 121.953C171.195 122.023 170.02 121.621 169.123 120.832C168.226 120.044 167.68 118.935 167.604 117.748C167.531 116.559 167.935 115.39 168.729 114.497C169.522 113.603 170.64 113.06 171.836 112.984L185.229 112.168C186.426 112.095 187.603 112.497 188.502 113.285C189.401 114.074 189.948 115.184 190.024 116.373C190.092 117.562 189.685 118.73 188.891 119.623C188.096 120.515 186.979 121.059 185.783 121.137Z" fill="#407BFF"/>
</g>
<g opacity="0.22">
<path d="M186.889 138.933L105.228 143.937C104.032 144.007 102.857 143.605 101.958 142.817C101.06 142.029 100.512 140.92 100.434 139.732C100.363 138.543 100.768 137.375 101.561 136.483C102.354 135.59 103.47 135.045 104.666 134.968L186.336 129.964C187.531 129.894 188.705 130.297 189.602 131.085C190.499 131.873 191.045 132.982 191.121 134.169C191.195 135.358 190.79 136.528 189.997 137.421C189.203 138.314 188.086 138.858 186.889 138.933Z" fill="#407BFF"/>
</g>
<path opacity="0.22" d="M165.701 9.82928L167.032 31.2268C167.115 32.5759 167.464 33.8956 168.061 35.1104C168.657 36.3252 169.489 37.4114 170.508 38.3069C171.527 39.2023 172.713 39.8896 174 40.3294C175.286 40.7691 176.647 40.9528 178.005 40.8699L199.567 39.5481L165.701 9.82928Z" fill="#407BFF"/>
</svg>
